<?xml version="1.0" encoding="utf-8"?>

<!DOCTYPE svg PUBLIC "-//W3C//DTD SVG 1.1//EN" "http://www.w3.org/Graphics/SVG/1.1/DTD/svg11.dtd">
<svg version="1.1" xmlns="http://www.w3.org/2000/svg" xmlns:xlink="http://www.w3.org/1999/xlink" x="0px" y="0px" width="1080px"
	 height="332px" viewBox="0 0 1080 332" enable-background="new 0 0 1080 332" xml:space="preserve">

<g id="Mitgeführte_Medien__x28_orange_x29_">
	<path id="orange" fill="#F98711" d="M160,314c0-78.488-63.512-142-142-142v142H160z"/>
	<path id="rot" fill="#F8170D" d="M160,18C81.511,18,18,81.513,18,160.001h142V18z"/>
	<path id="grün" fill="#169134" d="M314,160c0-78.489-63.512-142-142-142v142H314z"/>
	<path id="blau" fill="#0E73A1" d="M172,314c78.488,0,142-63.511,142-142H172V314z"/>
</g>

<g id="Texte">
	<g id="InfoGrid__x28_orange_x29_">
			<path fill="#444444" d="M394.66,201.545v-92.089h10.709v92.089H394.66z"/>
			<path fill="#444444" d="M476.293,201.545v-44.658c0-5.627-1.281-9.826-3.843-12.598s-6.572-4.158-12.03-4.158
				c-7.223,0-12.514,1.953-15.873,5.858c-3.36,3.905-5.039,10.352-5.039,19.337v36.219h-10.456V132.51h8.504l1.7,9.448h0.504
				c2.142-3.401,5.144-6.036,9.007-7.905c3.863-1.868,8.167-2.803,12.913-2.803c8.314,0,14.571,2.006,18.771,6.016
				c4.198,4.011,6.299,10.424,6.299,19.242v45.037H476.293z"/>
			<path fill="#444444" d="M539.344,140.635h-17.573v60.91h-10.457v-60.91h-12.346v-4.724l12.346-3.779v-3.843
				c0-16.964,7.411-25.447,22.235-25.447c3.653,0,7.937,0.735,12.85,2.205l-2.708,8.377c-4.031-1.301-7.476-1.952-10.33-1.952
				c-3.948,0-6.866,1.313-8.756,3.937c-1.89,2.625-2.834,6.834-2.834,12.629v4.473h17.573V140.635z"/>
			<path fill="#444444" d="M611.528,166.965c0,11.254-2.835,20.041-8.503,26.36c-5.67,6.32-13.502,9.479-23.495,9.479
				c-6.173,0-11.653-1.449-16.44-4.346c-4.787-2.898-8.482-7.055-11.086-12.473c-2.604-5.416-3.904-11.757-3.904-19.021
				c0-11.254,2.813-20.02,8.439-26.298c5.627-6.277,13.438-9.417,23.432-9.417c9.658,0,17.332,3.213,23.022,9.637
				C608.683,147.313,611.528,156.004,611.528,166.965z M558.934,166.965c0,8.818,1.764,15.537,5.291,20.156
				s8.713,6.928,15.558,6.928c6.844,0,12.041-2.299,15.59-6.896c3.548-4.599,5.322-11.327,5.322-20.188
				c0-8.776-1.774-15.442-5.322-19.999c-3.549-4.556-8.787-6.835-15.716-6.835c-6.845,0-12.01,2.247-15.495,6.74
				C560.675,151.365,558.934,158.063,558.934,166.965z"/>
			<path fill="#444444" d="M671.935,153.296h31.305v44.784c-4.871,1.555-9.826,2.73-14.865,3.527
				c-5.039,0.798-10.876,1.197-17.51,1.197c-13.942,0-24.797-4.146-32.565-12.44c-7.77-8.293-11.653-19.914-11.653-34.864
				c0-9.574,1.922-17.961,5.764-25.163c3.843-7.201,9.375-12.702,16.598-16.503c7.222-3.8,15.684-5.701,25.385-5.701
				c9.826,0,18.979,1.807,27.463,5.418l-4.158,9.447c-8.314-3.527-16.313-5.291-23.998-5.291c-11.212,0-19.967,3.339-26.266,10.016
				s-9.449,15.936-9.449,27.777c0,12.431,3.034,21.857,9.103,28.282c6.067,6.425,14.98,9.638,26.738,9.638
				c6.383,0,12.618-0.734,18.708-2.205V162.87h-20.598V153.296z"/>
			<path fill="#444444" d="M755.269,131.25c3.064,0,5.815,0.252,8.252,0.756l-1.449,9.7c-2.856-0.63-5.376-0.944-7.559-0.944
				c-5.585,0-10.361,2.268-14.33,6.803c-3.968,4.535-5.952,10.183-5.952,16.943v37.037h-10.456V132.51h8.629l1.197,12.787h0.504
				c2.561-4.493,5.647-7.958,9.26-10.394C746.975,132.469,750.943,131.25,755.269,131.25z"/>
			<path fill="#444444" d="M775.551,113.803c0-2.395,0.588-4.146,1.764-5.26c1.175-1.112,2.646-1.67,4.409-1.67
				c1.679,0,3.128,0.567,4.346,1.701s1.827,2.877,1.827,5.229s-0.609,4.104-1.827,5.259c-1.218,1.155-2.667,1.732-4.346,1.732
				c-1.764,0-3.234-0.577-4.409-1.732C776.139,117.907,775.551,116.154,775.551,113.803z M786.889,201.545h-10.456V132.51h10.456
				V201.545z"/>
			<path fill="#444444" d="M856.05,192.285h-0.567c-4.829,7.014-12.052,10.52-21.668,10.52c-9.028,0-16.052-3.086-21.069-9.26
				c-5.019-6.172-7.526-14.948-7.526-26.328s2.52-20.22,7.559-26.519s12.051-9.448,21.037-9.448c9.364,0,16.545,3.401,21.543,10.204
				h0.818l-0.441-4.976l-0.252-4.851v-28.093h10.457v98.01h-8.504L856.05,192.285z M835.138,194.049
				c7.139,0,12.314-1.941,15.526-5.826c3.213-3.884,4.818-10.15,4.818-18.802v-2.204c0-9.784-1.627-16.766-4.881-20.944
				c-3.255-4.178-8.451-6.267-15.59-6.267c-6.132,0-10.824,2.383-14.078,7.148c-3.255,4.767-4.881,11.496-4.881,20.188
				c0,8.818,1.615,15.475,4.85,19.968C824.136,191.804,828.88,194.049,835.138,194.049z"/>
	</g>
</g>
</svg>
